<svg version="1.0" xmlns="http://www.w3.org/2000/svg"  width="600.000000pt" height="600.000000pt" viewBox="0 0 600.000000 600.000000"  preserveAspectRatio="xMidYMid meet"> <g transform="translate(0.000000,600.000000) scale(0.100000,-0.100000)" fill="#ffffff" stroke="none"> <path d="M2934 4890 c-26 -10 -191 -142 -889 -705 -465 -375 -467 -377 -487 -421 -18 -41 -18 -79 -16 -926 l3 -883 28 -57 c34 -70 100 -130 176 -160 53 -21 72 -22 371 -25 l315 -3 -35 27 c-19 15 -71 63 -116 105 l-80 78 -175 0 c-197 0 -228 8 -261 70 -17 33 -18 79 -18 856 0 768 1 822 18 840 9 10 40 37 67 60 123 99 380 306 610 491 138 110 317 255 400 322 82 66 152 121 155 121 3 0 125 -96 271 -213 295 -235 504 -400 744 -587 208 -163 235 -189 235 -229 0 -48 -22 -82 -97 -147 -307 -268 -1002 -902 -1072 -978 -14 -14 -28 -26 -33 -26 -5 0 -62 52 -128 115 l-120 115 -50 0 c-92 0 -140 -43 -140 -127 l0 -47 183 -182 c153 -154 188 -184 219 -189 79 -15 95 -2 440 340 178 177 431 422 563 545 432 404 435 408 443 571 6 123 -11 156 -125 250 -200 165 -285 234 -294 237 -5 2 -9 109 -9 251 0 179 -3 250 -12 259 -17 17 -259 17 -276 0 -8 -8 -12 -53 -12 -135 0 -68 -2 -123 -5 -123 -6 0 -146 110 -425 333 -102 82 -202 157 -222 168 -39 20 -107 24 -144 9z"/> <path d="M2862 4266 c-29 -8 -87 -30 -129 -51 -219 -108 -334 -354 -278 -593 19 -78 41 -122 105 -207 28 -37 50 -68 48 -69 -264 -135 -442 -364 -494 -634 -63 -328 66 -665 331 -867 176 -134 333 -188 550 -188 253 -1 470 88 647 264 173 173 259 374 260 609 1 92 -15 220 -29 243 -2 4 -46 -31 -97 -78 l-93 -85 -6 -107 c-9 -177 -64 -300 -192 -429 -66 -67 -97 -89 -175 -127 -242 -118 -497 -98 -715 58 -257 183 -347 536 -210 823 188 396 687 514 1042 246 17 -13 35 -24 39 -24 7 0 146 129 152 141 4 9 -111 95 -175 131 l-53 30 45 55 c254 312 99 756 -300 858 -71 18 -200 18 -273 1z m256 -212 c71 -23 151 -89 186 -154 23 -43 30 -71 34 -131 6 -112 -15 -167 -93 -246 -52 -51 -72 -64 -129 -82 -38 -12 -90 -21 -116 -21 -26 0 -78 9 -116 21 -57 18 -77 31 -129 82 -43 44 -67 77 -78 111 -19 55 -22 152 -7 206 25 91 117 185 210 214 61 20 177 20 238 0z"/> <path d="M4352 3231 l-102 -96 -3 -567 -2 -566 -25 -27 c-44 -48 -75 -55 -257 -55 l-167 0 -85 -82 c-47 -46 -99 -93 -116 -105 l-30 -23 310 3 c349 3 366 6 462 78 58 43 96 101 113 169 7 31 10 251 8 706 l-3 662 -103 -97z"/> </g> </svg>